<svg xmlns="http://www.w3.org/2000/svg" xmlns:xlink="http://www.w3.org/1999/xlink" width="128" height="39" viewBox="0 0 128 39">
    <defs>
        <path id="a" d="M0 38.133h127.48V.067H0z"/>
    </defs>
    <g fill="none" fill-rule="evenodd">
        <path fill="#FFF" d="M46 4h1.842v10.147H52V16h-6z"/>
        <g>
            <path fill="#FFF" d="M54.751 10.703h3.771v-.094a.594.594 0 0 1-.03-.188v-.063a1.051 1.051 0 0 1-.094-.313c-.385-.893-1.018-1.342-1.901-1.347-1.112.266-1.694.934-1.746 2.005zm5.673-.032l.03.47c.022.027.032.058.032.094v.94h-5.703c.119 1.065.66 1.692 1.62 1.88.156.016.31.023.46.023.784 0 1.452-.258 2.002-.775.068.115.151.209.25.282l.031.094.093.094c.073.068.135.132.187.192.052.06.094.121.125.184.036.02.057.042.062.063l.437.5c-.987.83-2.04 1.246-3.156 1.246a4.41 4.41 0 0 1-.584-.04 5.877 5.877 0 0 1-.592-.109c-1.798-.6-2.785-1.895-2.961-3.885l-.004-.156a5.656 5.656 0 0 1-.004-.149c0-2.72 1.218-4.268 3.654-4.644 2.42.083 3.761 1.315 4.02 3.696z"/>
            <mask id="b" fill="#fff">
                <use xlink:href="#a"/>
            </mask>
            <path fill="#FFF" d="M62.259 15.747h1.9V7.194h-1.9v8.553zm2.088-11.06v.102c0 .434-.135.786-.405 1.058-.286.14-.548.211-.787.211-.416 0-.746-.227-.99-.681a1.976 1.976 0 0 1-.07-.486c0-.532.294-.893.88-1.08h.079c.66 0 1.09.292 1.293.877zM70.007 8.886h-.14l-.686.25c-.514.58-.772 1.214-.772 1.904 0 .115.008.232.024.352.135 1.185.758 1.801 1.87 1.848 1.106-.14 1.66-.822 1.66-2.044v-.117a1.03 1.03 0 0 0-.008-.126c-.032-1.383-.665-2.083-1.902-2.099-.02.021-.036.032-.046.032m1.979-1.097v-.595h1.87v8.71l-.031.344-.032.062-.03.188-.125.376-.094.189-.124.187c-.151.267-.328.475-.53.627l-.125.157-.655.313a8.27 8.27 0 0 1-2.002.258 6.362 6.362 0 0 1-3.233-.853l.062-.126.156-.344.124-.314.031-.094.063-.125a2.1 2.1 0 0 1 .187-.376l.062-.219c.836.428 1.613.642 2.33.642.65 0 1.254-.172 1.815-.517l.031-.094c.13-.182.213-.36.25-.533v-1.315c-.67.501-1.366.752-2.088.752-.322 0-.655-.052-.998-.157-1.147-.454-1.875-1.227-2.181-2.318a5.97 5.97 0 0 1-.2-.83 4.96 4.96 0 0 1-.065-.8c0-.74.181-1.44.545-2.098.587-1.091 1.44-1.718 2.556-1.88h.117c.904 0 1.675.261 2.314.783M76.56 3.81h1.9v4.073c.681-.616 1.416-.924 2.206-.924a3.136 3.136 0 0 1 .693.078c1.086.277 1.793.904 2.12 1.88l.031.22c.02.057.031.12.031.187v6.422H81.64V10.17l-.062-.25v-.095l-.094-.219a1.07 1.07 0 0 1-.156-.313 2.312 2.312 0 0 0-.841-.501c-.888.015-1.523.402-1.901 1.159v.094c-.026.073-.05.14-.075.2a.976.976 0 0 0-.05.176v5.325H76.56V3.81zM45.375 21.938h2.057v4.668h5.299v-4.668h2.057v11.967h-2.057v-5.45h-5.299v5.45h-2.057zM61.541 30.052h-.187a1.3 1.3 0 0 1-.265.031h-.047l-.124.032h-.094a.145.145 0 0 1-.093.031h-.094l-.498.125h-.094c-.145.084-.27.136-.374.157-.338.324-.507.637-.507.94 0 .276.138.548.414.814.4.246.79.368 1.168.368.483 0 .946-.196 1.387-.587a.777.777 0 0 1 .125-.25l.031-.095-.031-.125V30.02h-.623a.144.144 0 0 1-.094.032m1.995-3.979l.093.188c.244.303.4.616.468.94.02.136.036.262.047.38.01.118.015.22.015.31v4.134c.192.382.473.612.842.69l-.063.094c-.02.036-.041.057-.062.062l-.031.094-.062.063a.956.956 0 0 1-.187.282c-.074.193-.167.34-.281.439a3.71 3.71 0 0 1-.25.47c-.607-.157-1.085-.44-1.433-.846h-.093c-.67.485-1.362.728-2.073.728-.385 0-.764-.065-1.138-.196-1.117-.402-1.792-1.133-2.026-2.193v-.04c0-2.02 1.177-3.03 3.53-3.03h.024a.372.372 0 0 1 .155-.031l.094-.031h.218l.093-.032h.094l.779-.094a.876.876 0 0 0 .016-.157v-.156c0-.872-.46-1.308-1.38-1.308-.639 0-1.514.217-2.625.65l-.125-.282-.062-.188-.063-.063-.03-.062-.063-.188a1.1 1.1 0 0 1-.125-.282 1.23 1.23 0 0 1-.218-.439l.094-.031.062-.031.093-.032.063-.063h.093c.02-.02.04-.03.055-.03h.008c.187-.1.353-.173.498-.22l.156-.031c.114-.053.218-.084.312-.094l.25-.063c.18-.073.357-.115.529-.125l.686-.126c.103-.01.203-.02.3-.027.096-.008.19-.012.284-.012.992 0 1.805.327 2.439.98M73.83 27.452l-.344.125a1.246 1.246 0 0 1-.25.157l-.061.03-.187.064a.563.563 0 0 1-.25.125l-.498.282c-.452-.888-1.097-1.332-1.933-1.332-.145 0-.301.016-.467.047l-.094.063-.093.031-.343.188c-.083.1-.161.188-.234.267-.073.078-.14.146-.202.203-.328.674-.492 1.321-.492 1.943 0 .658.185 1.294.554 1.91.39.507.865.76 1.425.76h.083a.422.422 0 0 0 .081-.007c.847-.136 1.429-.575 1.746-1.316l.311.188.125.062c.114.032.197.063.25.094l.124.063.063.063.685.313c-.831 1.478-1.977 2.216-3.436 2.216-.115 0-.231-.005-.35-.015a8.95 8.95 0 0 1-.36-.04c-1.859-.39-2.919-1.571-3.178-3.54a6.696 6.696 0 0 1-.047-.783c0-.924.213-1.76.64-2.506.648-1.175 1.645-1.801 2.991-1.88 1.782.042 3.028.783 3.74 2.225M75.352 21.906h1.9v6.705l.157-.126.124-.156.187-.188.063-.031c.02-.037.041-.058.062-.063l.343-.376.093-.125.312-.282a1.248 1.248 0 0 1 .312-.314l.187-.188c.067-.099.14-.172.218-.219l.187-.188.062-.094.094-.062.062-.095.062-.062.094-.063.031-.062c.094-.126.187-.23.28-.314l.063-.031.113-.14a.832.832 0 0 1 .105-.11h2.494l-.032.062-.062.063-.062.031-.031.063-.063.03-.113.142a.892.892 0 0 1-.105.11l-.156.125-.093.156-.063.032c-.02.037-.041.057-.062.063-.161.203-.317.36-.467.47-.021.036-.042.057-.063.062a1.983 1.983 0 0 1-.436.439l-.094.125-.218.188-.093.125-.156.157-.125.094-.062.094-.094.063-.03.062-.094.063-.156.156-.031.063-.063.032a1.306 1.306 0 0 1-.311.313l.093.219.125.188.093.094.031.063c.073.099.125.182.156.25l.094.094.031.094c.02.016.031.032.031.047v.016c.156.172.26.329.312.47.156.172.26.329.312.47l.124.125.063.157.124.125a2.9 2.9 0 0 0 .25.376l.093.125.094.157.093.125.062.126.094.125.499.752.03.094.063.031.062.094c.099.146.185.282.257.407.073.126.133.24.18.345H80.93l-.094-.188a.17.17 0 0 1-.023-.027.046.046 0 0 1-.008-.028v-.008a2.845 2.845 0 0 1-.343-.47l-.093-.125-.094-.157a1.914 1.914 0 0 1-.128-.203 4.604 4.604 0 0 1-.09-.173l-.094-.093-.093-.126-.062-.125-.094-.125-.093-.157a2.11 2.11 0 0 1-.28-.439l-.094-.125a.687.687 0 0 1-.156-.25l-.094-.095-.124-.219-.25-.376a.172.172 0 0 1-.023-.027.045.045 0 0 1-.008-.028v-.008a3.05 3.05 0 0 1-.25-.313c-.02.037-.04.057-.062.063l-.062.125-.28.25c-.021.037-.042.058-.063.063l-.03.063-.188.157c-.114.188-.25.334-.405.438v2.726h-1.901V21.906zM90.685 26.355l-.094.125-.093.095-.094.062-.124.188-.062.063-.063.031c-.067.094-.13.167-.187.22l-.405.47c-.862-.56-1.577-.839-2.143-.839-.582 0-1.01.29-1.285.87.01.339.145.59.405.752.114.03.197.062.25.093.202.032.368.073.498.126 1.968.146 3.07.94 3.303 2.38.011.063.016.125.016.185v.176c0 1.05-.442 1.838-1.324 2.365a4.59 4.59 0 0 1-1.91.43c-1.215 0-2.428-.518-3.638-1.557l.062-.126.156-.156c.104-.126.197-.22.28-.283.021-.036.042-.057.063-.062l.062-.094c.02-.037.042-.057.062-.063l.032-.062.062-.032.405-.47c.769.731 1.574 1.097 2.416 1.097.353 0 .711-.063 1.075-.188.093-.126.187-.22.28-.282.032-.125.047-.243.047-.353a.942.942 0 0 0-.265-.68l-.716-.251c-2.14-.131-3.304-1.05-3.491-2.758.14-1.717 1.106-2.636 2.898-2.756h.11c1.376 0 2.513.428 3.412 1.284M94.418 29.269c-.015.12-.026.235-.031.344-.005.11-.008.217-.008.321 0 .747.18 1.34.538 1.778.447.313.883.47 1.31.47.337 0 .669-.094.996-.282.764-.564 1.146-1.313 1.146-2.248 0-.125-.008-.253-.024-.383-.239-1.353-.976-2.084-2.213-2.193-1.148.235-1.721.877-1.721 1.926v.134c0 .041.002.086.007.133zm2.213-4.136c.135 0 .261.007.378.02.117.013.22.027.308.043 2.01.736 3.016 2.162 3.016 4.276 0 .188-.009.382-.024.58-.14 1.827-.95 3.07-2.431 3.728a4.143 4.143 0 0 1-1.45.282c-.768 0-1.46-.26-2.072-.783v3.258h-1.87V25.29h1.87v.658a3.673 3.673 0 0 1 1.745-.815h.53zM106.153 30.052h-.187a1.3 1.3 0 0 1-.265.031h-.046l-.125.032h-.094a.145.145 0 0 1-.093.031h-.094l-.498.125h-.094c-.145.084-.27.136-.374.157-.338.324-.506.637-.506.94 0 .276.137.548.413.814.4.246.79.368 1.168.368.484 0 .946-.196 1.388-.587a.777.777 0 0 1 .124-.25l.031-.095-.03-.125V30.02h-.624a.144.144 0 0 1-.094.032m1.995-3.979l.094.188c.243.303.4.616.467.94.02.136.036.262.047.38.01.118.015.22.015.31v4.134c.192.382.473.612.842.69l-.063.094c-.02.036-.041.057-.062.062l-.03.094-.063.063a.956.956 0 0 1-.187.282c-.073.193-.167.34-.28.439a3.718 3.718 0 0 1-.25.47c-.608-.157-1.086-.44-1.434-.846h-.093c-.67.485-1.361.728-2.073.728-.385 0-.763-.065-1.138-.196-1.117-.402-1.792-1.133-2.025-2.193v-.04c0-2.02 1.176-3.03 3.53-3.03h.023a.372.372 0 0 1 .155-.031l.094-.031h.218l.094-.032h.093l.78-.094a.876.876 0 0 0 .015-.157v-.156c0-.872-.46-1.308-1.38-1.308-.638 0-1.514.217-2.625.65l-.125-.282-.062-.188-.062-.063-.032-.062-.062-.188a1.1 1.1 0 0 1-.124-.282 1.23 1.23 0 0 1-.219-.439l.094-.031.062-.031.094-.032.062-.063h.093c.021-.02.04-.03.055-.03h.008c.187-.1.353-.173.498-.22l.156-.031c.114-.053.218-.084.312-.094l.25-.063c.18-.073.358-.115.53-.125l.685-.126c.104-.01.204-.02.3-.027a3.63 3.63 0 0 1 .284-.012c.992 0 1.805.327 2.439.98M118.441 27.452l-.343.125a1.246 1.246 0 0 1-.249.157l-.062.03-.187.064a.563.563 0 0 1-.25.125l-.498.282c-.452-.888-1.096-1.332-1.933-1.332-.145 0-.3.016-.467.047l-.094.063-.093.031-.343.188c-.083.1-.161.188-.234.267-.073.078-.14.146-.202.203-.328.674-.491 1.321-.491 1.943 0 .658.184 1.294.553 1.91.39.507.865.76 1.426.76h.082a.42.42 0 0 0 .081-.007c.847-.136 1.429-.575 1.746-1.316l.311.188.125.062c.114.032.198.063.25.094l.124.063.063.063.685.313c-.831 1.478-1.976 2.216-3.436 2.216-.114 0-.231-.005-.35-.015a8.95 8.95 0 0 1-.36-.04c-1.859-.39-2.918-1.571-3.178-3.54a6.696 6.696 0 0 1-.047-.783c0-.924.213-1.76.64-2.506.648-1.175 1.646-1.801 2.991-1.88 1.782.042 3.029.783 3.74 2.225M121.745 28.861h3.771v-.094a.594.594 0 0 1-.031-.188v-.062a1.054 1.054 0 0 1-.094-.314c-.384-.892-1.018-1.341-1.9-1.347-1.113.267-1.694.935-1.746 2.005m5.672-.031l.031.47c.021.026.032.057.032.094v.94h-5.704c.12 1.065.66 1.692 1.62 1.88.157.015.31.023.46.023.785 0 1.452-.258 2.003-.775.067.115.15.209.25.282l.03.094.094.094c.072.068.135.131.187.191.052.06.094.122.125.185.036.02.057.041.062.062l.436.501c-.987.83-2.039 1.246-3.155 1.246-.192 0-.387-.013-.585-.04a5.876 5.876 0 0 1-.592-.109c-1.797-.6-2.784-1.896-2.96-3.885a6.92 6.92 0 0 0-.005-.156 6.654 6.654 0 0 1-.003-.15c0-2.72 1.218-4.268 3.654-4.644 2.42.084 3.76 1.316 4.02 3.697M31.09 13.997L24.01 6.882l.852-.855-5.928-5.96-8.723 8.768 5.69 5.719 2.047-2.058 1.49 1.498-5.584 5.613-1.49-1.498 2.047-2.057-5.69-5.72L0 19.1l5.929 5.96.878-.884 7.078 7.115-.879.883 5.929 5.96 8.722-8.768-5.69-5.72-2.046 2.058-1.49-1.498 5.583-5.613 1.49 1.498-2.046 2.058 5.69 5.719L37.87 19.1l-5.929-5.959z" mask="url(#b)"/>
        </g>
    </g>
</svg>
